<svg width="100%" height="100%" viewBox="0 0 800 600" version="1.1" xmlns="http://www.w3.org/2000/svg" xmlns:xlink="http://www.w3.org/1999/xlink" xml:space="preserve" xmlns:serif="http://www.serif.com/" style="fill-rule:evenodd;clip-rule:evenodd;stroke-linejoin:round;stroke-miterlimit:2;">
    <g transform="matrix(1.15524,0,0,1.15524,-81.0465,-60.728)">
        <g transform="matrix(1,0,0,1,-111.783,-121.611)">
            <path d="M752.582,468.932C826.662,428.004 852.043,337.359 809.274,266.47C766.504,195.582 671.779,171.293 597.7,212.221C523.62,253.149 498.239,343.794 541.009,414.683C583.778,485.572 678.503,509.86 752.582,468.932Z" style="fill:rgb(17,141,255);fill-rule:nonzero;"/>
        </g>
        <g transform="matrix(1,0,0,1,-111.783,-121.611)">
            <path d="M729.74,671.546C803.819,630.618 829.201,539.973 786.431,469.084C743.661,398.195 648.936,373.907 574.857,414.835C500.778,455.762 475.396,546.407 518.166,617.296C560.936,688.185 655.661,712.473 729.74,671.546Z" style="fill:rgb(183,12,187);fill-rule:nonzero;"/>
        </g>
        <g transform="matrix(1,0,0,1,-111.783,-121.611)">
            <path d="M532.597,355.124C605.362,287.275 642.862,211.169 616.354,185.136C589.846,159.104 509.369,193.003 436.603,260.852C363.838,328.701 326.338,404.808 352.846,430.84C379.354,456.873 459.831,422.974 532.597,355.124Z" style="fill:rgb(236,22,255);fill-rule:nonzero;"/>
        </g>
        <g transform="matrix(1,0,0,1,-111.783,-121.611)">
            <path d="M200.741,653.122C219.867,615.986 380.951,462.053 358.574,352.908C336.197,243.763 658.373,461.844 598.376,561.324C538.88,659.98 181.606,690.259 200.741,653.122Z" style="fill:rgb(78,167,250);fill-rule:nonzero;"/>
        </g>
    </g>
</svg>
